<svg height="500pt" viewBox="-102 0 500 500" width="500pt" xmlns="http://www.w3.org/2000/svg"><path d="m246 500c27.601562-.03125 49.96875-22.398438 50-50v-400c-.03125-27.601562-22.398438-49.96875-50-50h-196c-27.601562.03125-49.96875 22.398438-50 50v400c.03125 27.601562 22.398438 49.96875 50 50zm30-111h-256v-287h256zm-226-369h196c16.5625.019531 29.980469 13.4375 30 30v32h-256v-32c.019531-16.5625 13.4375-29.980469 30-30zm-30 430v-41h256v41c-.019531 16.5625-13.4375 29.980469-30 30h-196c-16.5625-.019531-29.980469-13.4375-30-30zm0 0"/><path d="m133 72h30c5.523438 0 10-4.476562 10-10s-4.476562-10-10-10h-30c-5.523438 0-10 4.476562-10 10s4.476562 10 10 10zm0 0"/><path d="m148 475.480469c16.695312 0 30.230469-13.535157 30.230469-30.230469s-13.535157-30.230469-30.230469-30.230469-30.230469 13.535157-30.230469 30.230469c.019531 16.6875 13.542969 30.210938 30.230469 30.230469zm0-40.460938c5.652344 0 10.230469 4.578125 10.230469 10.230469s-4.578125 10.230469-10.230469 10.230469-10.230469-4.578125-10.230469-10.230469c.003907-5.648438 4.582031-10.226562 10.230469-10.230469zm0 0"/><path d="m60.117188 282h.882812v.867188c-.089844 6.917968 2.605469 13.582031 7.476562 18.496093 4.871094 4.914063 11.511719 7.664063 18.429688 7.636719h16.898438c2.648437.0625 5.210937-.933594 7.125-2.765625 1.914062-1.828125 3.019531-4.347656 3.074218-6.996094v-24.238281h68v24.238281c.054688 2.648438 1.160156 5.164063 3.074219 6.996094s4.476563 2.824219 7.121094 2.765625h16.902343c6.914063.027344 13.554688-2.722656 18.425782-7.636719 4.867187-4.914062 7.5625-11.578125 7.472656-18.492187v-.871094h.882812c6.917969.085938 13.578126-2.613281 18.492188-7.484375 4.910156-4.875 7.65625-11.515625 7.625-18.433594v-14.84375c.042969-6.949219-2.6875-13.632812-7.59375-18.558593-4.902344-4.925782-11.574219-7.691407-18.523438-7.679688h-.519531c-1.015625-13.695312-12.535156-24.21875-26.261719-24h-16.902343c-2.648438-.0625-5.210938.933594-7.125 2.765625-1.914063 1.828125-3.019531 4.347656-3.074219 6.996094v24.238281h-68v-24.238281c-.054688-2.648438-1.160156-5.167969-3.074219-6.996094-1.914062-1.832031-4.476562-2.828125-7.125-2.765625h-16.902343c-13.730469-.222656-25.25 10.304688-26.265626 24h-.519531c-6.949219-.011719-13.617187 2.753906-18.519531 7.679688-4.90625 4.925781-7.636719 11.605468-7.59375 18.558593v14.84375c-.03125 6.917969 2.714844 13.558594 7.625 18.433594 4.914062 4.871094 11.574219 7.570313 18.492188 7.484375zm181.882812-40.761719v14.84375c.039062 1.613281-.601562 3.171875-1.765625 4.296875-1.160156 1.125-2.738281 1.710938-4.351563 1.621094h-.882812v-27h.882812c1.648438-.019531 3.234376.636719 4.386719 1.816406 1.15625 1.175782 1.78125 2.773438 1.730469 4.421875zm-40-30.238281h7.101562c1.613282-.03125 3.167969.609375 4.289063 1.773438 1.121094 1.164062 1.703125 2.742187 1.609375 4.355468v65.742188c.09375 1.613281-.488281 3.191406-1.609375 4.355468-1.121094 1.164063-2.675781 1.804688-4.289063 1.773438h-7.101562zm-20 34v10h-68v-10zm-101-27.871094c-.09375-1.613281.488281-3.191406 1.609375-4.355468 1.121094-1.164063 2.679687-1.808594 4.296875-1.773438h7.09375v78h-7.09375c-1.617188.035156-3.175781-.609375-4.296875-1.773438-1.121094-1.164062-1.703125-2.742187-1.609375-4.359374zm-27 24.109375c-.050781-1.648437.574219-3.246093 1.730469-4.425781 1.152343-1.175781 2.738281-1.832031 4.386719-1.8125h.882812v27h-.882812c-1.613282.089844-3.191407-.496094-4.351563-1.621094-1.164063-1.125-1.804687-2.683594-1.765625-4.296875zm0 0"/></svg>