<svg id="Capa_1" enable-background="new 0 0 512 512" height="512" viewBox="0 0 512 512" width="512" xmlns="http://www.w3.org/2000/svg"><g><path d="m158.5 0c-51.289 0-90 71.222-90 120 0 32.331 17.373 61.908 45 77.867v269.133c0 24.813 20.187 45 45 45s45-20.187 45-45v-269.133c27.627-15.959 45-45.536 45-77.867 0-48.814-38.709-120-90-120zm23.986 174.927c-5.459 2.389-8.986 7.783-8.986 13.742v278.331c0 8.271-6.729 15-15 15s-15-6.729-15-15v-278.332c0-5.959-3.527-11.353-8.986-13.742-21.878-9.574-36.014-31.134-36.014-54.926 0-35.13 29.327-90 60-90 31.075 0 60 55.476 60 90 0 23.792-14.136 45.352-36.014 54.927z"/><path d="m428.5 0c-8.284 0-15 6.716-15 15v105h-30v-105c0-8.284-6.716-15-15-15s-15 6.716-15 15v105h-30v-105c0-8.284-6.716-15-15-15s-15 6.716-15 15v150c0 19.556 12.539 36.239 30 42.43v259.57c0 24.813 20.187 45 45 45s45-20.187 45-45v-259.57c17.461-6.191 30-22.873 30-42.43v-150c0-8.284-6.716-15-15-15zm-30 180c-8.284 0-15 6.716-15 15v272c0 8.271-6.729 15-15 15s-15-6.729-15-15v-272c0-8.284-6.716-15-15-15-8.271 0-15-6.729-15-15v-15h90v15c0 8.271-6.729 15-15 15z"/></g></svg>