<svg id="Layer_1" enable-background="new 0 0 512.008 512.008" height="512" viewBox="0 0 512.008 512.008" width="512" xmlns="http://www.w3.org/2000/svg"><g><path d="m496.872 218.303c8.284 0 15-6.716 15-15v-89.336c0-8.284-6.716-15-15-15h-53.12v-83.967c0-6.134-3.734-11.649-9.429-13.927-5.695-2.277-12.203-.859-16.433 3.581l-31.027 32.575-31.028-32.575c-4.229-4.44-10.737-5.858-16.433-3.581-5.695 2.277-9.429 7.793-9.429 13.927v83.967h-57.67v-32.443l33.079-42.187c5.111-6.52 3.971-15.948-2.549-21.06-6.519-5.112-15.948-3.97-21.06 2.548l-24.703 31.506-25.89-31.732c-5.237-6.419-14.686-7.378-21.105-2.14-6.419 5.236-7.377 14.686-2.14 21.104l34.368 42.123v32.28h-57.622c6.13-9.899 9.694-21.609 9.694-34.158 0-8.284-6.716-15-15-15h-46.119c-8.284 0-15 6.716-15 15s6.716 15 15 15h27.774c-5.358 11.336-16.592 19.158-29.552 19.158-18.139 0-32.896-15.535-32.896-34.63 0-18.835 14.757-34.159 32.896-34.159 5.879 0 11.643 1.626 16.669 4.703 7.064 4.324 16.299 2.104 20.625-4.961s2.104-16.3-4.961-20.625c-9.743-5.965-20.923-9.117-32.333-9.117-34.681 0-62.896 28.781-62.896 64.159 0 12.735 3.618 24.612 9.832 34.63h-62.985c-8.284 0-15 6.716-15 15v89.336c0 8.284 6.716 15 15 15h12.598v263.705h-12.891c-8.284 0-15 6.716-15 15s6.716 15 15 15h481.735c8.284 0 15-6.716 15-15s-6.716-15-15-15h-11.817v-263.704zm-136.898-165.806 16.027 16.827c2.831 2.972 6.756 4.654 10.861 4.654s8.03-1.683 10.861-4.654l16.027-16.827v46.47h-53.777v-46.47zm-329.545 76.47h451.442v59.336h-451.442zm104.213 290.009v-139.487h55.446v139.486h-55.446zm-76.615 0v-139.487h46.615v139.486h-46.615zm162.06-139.487h46.615v139.486h-46.615zm46.615-61.186v31.187h-208.675v-31.187zm-208.675 230.673h208.675v33.032h-208.675zm397.028 33.032h-158.353v-263.705h158.353z"/><ellipse cx="340.746" cy="365.104" rx="14.998" ry="14.949"/></g></svg>