<?xml version="1.0" encoding="iso-8859-1"?>
<!-- Generator: Adobe Illustrator 19.0.0, SVG Export Plug-In . SVG Version: 6.00 Build 0)  -->
<svg version="1.1" id="Layer_1" xmlns="http://www.w3.org/2000/svg" xmlns:xlink="http://www.w3.org/1999/xlink" x="0px" y="0px"
	 viewBox="0 0 511.999 511.999" style="enable-background:new 0 0 511.999 511.999;" xml:space="preserve">
<g>
	<g>
		<path d="M479.426,207.425H355.39l-73.484-106.507c5.267-6.042,8.468-13.929,8.468-22.555c0-18.953-15.419-34.373-34.373-34.373
			s-34.373,15.42-34.373,34.373c0,8.625,3.202,16.514,8.468,22.555L156.61,207.425H32.574C14.612,207.425,0,222.038,0,239.998
			v195.436c0,17.962,14.612,32.574,32.574,32.574h376.637c4.701,0,8.511-3.811,8.511-8.511c0-4.701-3.81-8.512-8.511-8.512H32.574
			c-8.576,0-15.551-6.977-15.551-15.551V239.998c0-8.574,6.976-15.55,15.551-15.55h112.29l-4.216,6.111
			c-2.669,3.87-1.697,9.17,2.172,11.84c1.476,1.019,3.16,1.506,4.827,1.506c2.703,0,5.362-1.285,7.013-3.678l10.887-15.779h180.904
			l10.887,15.779c1.653,2.394,4.311,3.678,7.013,3.678c1.666,0,3.351-0.488,4.827-1.506c3.869-2.67,4.841-7.969,2.172-11.84
			l-4.216-6.111h112.29c8.576,0,15.551,6.975,15.551,15.55v195.436c0,8.574-6.975,15.551-15.551,15.551h-38.133
			c-4.701,0-8.512,3.811-8.512,8.512c0,4.701,3.811,8.511,8.512,8.511h38.133c17.962,0,32.574-14.612,32.574-32.574V239.998
			C512,222.038,497.388,207.425,479.426,207.425z M256,61.012c9.567,0,17.35,7.783,17.35,17.35c0,9.567-7.783,17.35-17.35,17.35
			s-17.35-7.783-17.35-17.35C238.65,68.795,246.433,61.012,256,61.012z M177.293,207.425l66.8-96.818
			c3.712,1.375,7.723,2.129,11.907,2.129s8.196-0.754,11.907-2.129l66.8,96.818H177.293z"/>
	</g>
</g>
<g>
	<g>
		<path d="M275.711,270.119h-29.997c-4.701,0-8.512,3.811-8.512,8.512c0,4.701,3.811,8.511,8.512,8.511h5.665l-23.39,53.913
			l-23.39-53.913h5.663c4.701,0,8.512-3.811,8.512-8.512s-3.811-8.512-8.512-8.512h-29.996c-4.701,0-8.511,3.811-8.511,8.512
			s3.811,8.512,8.511,8.512h5.777l33.435,77.066v24.084h-6.487c-4.701,0-8.511,3.811-8.511,8.512c0,4.701,3.811,8.511,8.511,8.511
			h29.997c4.701,0,8.512-3.811,8.512-8.511c0-4.701-3.811-8.512-8.512-8.512h-6.487v-24.084l33.432-77.066h5.777
			c4.701,0,8.511-3.811,8.511-8.511C284.223,273.929,280.412,270.119,275.711,270.119z"/>
	</g>
</g>
<g>
	<g>
		<path d="M439.246,388.291h-5.382l-29.726-111.846c-0.991-3.729-4.367-6.326-8.226-6.326c-3.859,0-7.235,2.595-8.226,6.326
			l-23.181,87.221l-23.181-87.221c-0.991-3.729-4.367-6.326-8.226-6.326s-7.235,2.595-8.226,6.325L295.142,388.29h-5.381
			c-4.701,0-8.512,3.811-8.512,8.512s3.811,8.511,8.512,8.511h25.912c4.701,0,8.512-3.81,8.512-8.511s-3.811-8.512-8.512-8.512
			h-2.916l20.34-76.524l23.181,87.222c0.991,3.729,4.367,6.326,8.226,6.326s7.235-2.595,8.226-6.326l23.181-87.221l20.339,76.524
			h-2.915c-4.701,0-8.513,3.81-8.513,8.511c0,4.701,3.811,8.511,8.512,8.511h25.912c4.701,0,8.512-3.811,8.512-8.511
			C447.758,392.102,443.947,388.291,439.246,388.291z"/>
	</g>
</g>
<g>
	<g>
		<path d="M152.708,344.956h-34.647c-4.701,0-8.511,3.811-8.511,8.511c0,4.701,3.811,8.512,8.511,8.512h25.083
			c-3.807,15.102-17.504,26.312-33.771,26.312c-15.499,0-28.109-12.609-28.109-28.109v-43.477
			c0.001-15.499,12.61-28.108,28.109-28.108c12.346,0,23.882,6.634,30.109,17.314c2.369,4.062,7.581,5.432,11.64,3.065
			c4.062-2.367,5.434-7.579,3.067-11.64c-9.264-15.892-26.435-25.762-44.815-25.762c-24.886,0-45.132,20.246-45.132,45.131v43.477
			c0,24.885,20.246,45.132,45.132,45.132c28.588,0,51.847-23.259,51.847-51.847C161.22,348.766,157.409,344.956,152.708,344.956z"/>
	</g>
</g>
<g>
</g>
<g>
</g>
<g>
</g>
<g>
</g>
<g>
</g>
<g>
</g>
<g>
</g>
<g>
</g>
<g>
</g>
<g>
</g>
<g>
</g>
<g>
</g>
<g>
</g>
<g>
</g>
<g>
</g>
</svg>
