<?xml version="1.0" encoding="iso-8859-1"?>
<!-- Generator: Adobe Illustrator 19.0.0, SVG Export Plug-In . SVG Version: 6.00 Build 0)  -->
<svg version="1.1" id="Capa_1" xmlns="http://www.w3.org/2000/svg" xmlns:xlink="http://www.w3.org/1999/xlink" x="0px" y="0px"
	 viewBox="0 0 496 496" style="enable-background:new 0 0 496 496;" xml:space="preserve">
<g>
	<g>
		<path d="M416,0v80h-27.056c-5.624-4.92-12.896-8-20.944-8c-8.048,0-15.32,3.08-20.944,8H148.944c-5.624-4.92-12.896-8-20.944-8
			c-8.048,0-15.32,3.08-20.944,8H80V0H0v208h80v-80h27.056c1.688,1.472,3.52,2.752,5.488,3.848l39.088,226.728l-0.032,0.064
			L177.36,496h141.28l25.76-137.36l-0.032-0.064l39.088-226.728c1.968-1.096,3.8-2.376,5.488-3.848H416v80h80V0H416z M64,192H48v-80
			H32v80H16V16h16v80h16V16h16V192z M97.136,112H80V96h17.136C96.464,98.576,96,101.224,96,104S96.464,109.424,97.136,112z
			 M337.136,96c-0.528,2.04-0.848,4.144-0.968,6.32l-2.52,9.68H162.352l-2.52-9.68c-0.112-2.176-0.44-4.28-0.968-6.32H337.136z
			 M248,280c-26.472,0-48-21.528-48-48v-16c0-26.472,21.528-48,48-48s48,21.528,48,48v16C296,258.472,274.472,280,248,280z
			 M263.032,294.144c-1.432,4.872-4.448,9.184-8.784,12.08l-6.248,4.16l-6.248-4.168c-4.336-2.896-7.36-7.208-8.784-12.08
			C237.8,295.312,242.816,296,248,296S258.2,295.312,263.032,294.144z M248,152c-30.312,0-55.712,21.2-62.288,49.536L166.528,128
			h162.944l-19.184,73.536C303.712,173.2,278.312,152,248,152z M112,104c0-8.824,7.176-16,16-16c8.824,0,16,7.176,16,16
			s-7.176,16-16,16C119.176,120,112,112.824,112,104z M129.472,135.848c7.856-0.368,14.952-3.52,20.336-8.56l41.648,159.624
			l-27.424,49.36L129.472,135.848z M305.36,480H190.64L168.4,361.36l40.152-72.272l-2.256-8.648
			c3.328,2.872,6.928,5.416,10.792,7.56H216c0,12.704,6.304,24.488,16.872,31.528L248,329.616l15.128-10.088
			C273.696,312.488,280,300.704,280,288h-1.088c3.864-2.144,7.464-4.696,10.792-7.56l-2.256,8.648L327.6,361.36L305.36,480z
			 M331.968,336.272l-27.424-49.36l41.648-159.624c5.384,5.04,12.48,8.2,20.336,8.56L331.968,336.272z M368,120
			c-8.824,0-16-7.176-16-16s7.176-16,16-16c8.824,0,16,7.176,16,16S376.824,120,368,120z M416,112h-17.136
			c0.672-2.576,1.136-5.224,1.136-8s-0.464-5.424-1.136-8H416V112z M480,192h-16v-80h-16v80h-16V16h16v80h16V16h16V192z"/>
	</g>
</g>
<g>
</g>
<g>
</g>
<g>
</g>
<g>
</g>
<g>
</g>
<g>
</g>
<g>
</g>
<g>
</g>
<g>
</g>
<g>
</g>
<g>
</g>
<g>
</g>
<g>
</g>
<g>
</g>
<g>
</g>
</svg>
