<svg id="Icons" height="512" viewBox="0 0 74 74" width="512" xmlns="http://www.w3.org/2000/svg"><path d="m44.326 72a4.621 4.621 0 0 1 -4.6-4.24l-1.7-20.422h-.662l-1.7 20.422a4.621 4.621 0 0 1 -9.217-.688l1.38-20.8v-16.442l-13.139-13.349a1 1 0 0 1 .029-1.43l5.18-4.864a1 1 0 0 1 1.411.041l9.3 9.8a7.282 7.282 0 0 0 5.261 2.261h3.658a7.28 7.28 0 0 0 5.262-2.261l9.3-9.8a1 1 0 0 1 1.41-.041l5.182 4.864a1 1 0 0 1 .028 1.43l-13.149 13.348v16.508l1.378 20.734a4.622 4.622 0 0 1 -4.612 4.929zm-7.884-26.663h2.5a1 1 0 0 1 1 .918l1.772 21.339a2.621 2.621 0 0 0 5.228-.39l-1.38-20.8v-16.985a1 1 0 0 1 .287-.7l12.711-12.91-3.71-3.482-8.614 9.073a9.289 9.289 0 0 1 -6.713 2.884h-3.658a9.3 9.3 0 0 1 -6.713-2.884l-8.611-9.077-3.709 3.482 12.71 12.91a1 1 0 0 1 .287.7v16.922l-1.382 20.863a2.621 2.621 0 0 0 5.228.39l1.771-21.339a1 1 0 0 1 .996-.914z"/><path d="m13.629 18.455a1 1 0 0 1 -.685-1.729l8.456-7.943a1 1 0 1 1 1.369 1.457l-8.451 7.943a.99.99 0 0 1 -.689.272z"/><path d="m25.143 13.162a1.973 1.973 0 0 1 -1.4-.581l-5.077-5.075a1.98 1.98 0 0 1 0-2.8l2.034-2.035a2.029 2.029 0 0 1 2.8 0l5.075 5.075a1.984 1.984 0 0 1 0 2.8l-2.034 2.033a1.968 1.968 0 0 1 -1.398.583zm-5.049-7.057 5.061 5.062 2.007-2.033-5.076-5.049zm-.721-.694.707.708z"/><path d="m13.256 24.511a1.974 1.974 0 0 1 -1.4-.579l-5.076-5.076a1.978 1.978 0 0 1 0-2.8l2.033-2.033a2.028 2.028 0 0 1 2.8 0l5.076 5.077a1.977 1.977 0 0 1 0 2.8l-2.031 2.032a1.976 1.976 0 0 1 -1.402.579zm-5.048-7.055 5.062 5.062 2.005-2.033-5.075-5.049zm-.721-.694.707.707z"/><path d="m61.682 18.364a.993.993 0 0 1 -.682-.272l-8.45-7.943a1 1 0 1 1 1.369-1.457l8.45 7.943a1 1 0 0 1 -.684 1.729z"/><path d="m50.169 13.069a1.977 1.977 0 0 1 -1.4-.578l-2.033-2.033a1.987 1.987 0 0 1 0-2.8l5.077-5.075a2.029 2.029 0 0 1 2.8 0l2.033 2.032a1.985 1.985 0 0 1 0 2.8l-5.076 5.075a1.976 1.976 0 0 1 -1.401.579zm3.031-9.069-5.051 5.07 2.033 2.006 5.036-5.062z"/><path d="m62.055 24.421a1.968 1.968 0 0 1 -1.4-.581l-2.032-2.032a1.986 1.986 0 0 1 0-2.8l5.077-5.077a2.029 2.029 0 0 1 2.8 0l2.032 2.032a1.985 1.985 0 0 1 0 2.8l-5.076 5.076a1.971 1.971 0 0 1 -1.401.582zm3.029-9.076-5.049 5.075 2.033 2.007 5.032-5.062z"/><path d="m37.694 20.922a7.63 7.63 0 1 1 7.63-7.63 7.639 7.639 0 0 1 -7.63 7.63zm0-13.26a5.63 5.63 0 1 0 5.63 5.63 5.637 5.637 0 0 0 -5.63-5.63z"/></svg>