<?xml version="1.0" encoding="iso-8859-1"?>
<!-- Generator: Adobe Illustrator 21.0.0, SVG Export Plug-In . SVG Version: 6.00 Build 0)  -->
<svg xmlns="http://www.w3.org/2000/svg" xmlns:xlink="http://www.w3.org/1999/xlink" version="1.1" id="Capa_1" x="0px" y="0px" viewBox="0 0 512 512" style="enable-background:new 0 0 512 512;" xml:space="preserve" width="512" height="512">
<g>
	<path d="M395,95.509V15c0-8.284-6.716-15-15-15H132c-8.284,0-15,6.716-15,15v80.509C82.808,102.478,57,132.781,57,169v268   c0,41.355,33.645,75,75,75h248c41.355,0,75-33.645,75-75V169C455,132.781,429.192,102.478,395,95.509z M87,226h338v154H87V226z    M365,30v64H147V30H365z M132,124h248c24.813,0,45,20.187,45,45v27H87v-27C87,144.187,107.187,124,132,124z M380,482H132   c-24.813,0-45-20.187-45-45v-27h338v27C425,461.813,404.813,482,380,482z"/>
	<path d="M334,266c-8.284,0-15,6.716-15,15v-16c0-8.284-6.716-15-15-15s-15,6.716-15,15v23h-70v-23c0-8.284-6.716-15-15-15   s-15,6.716-15,15v16c0-8.284-6.716-15-15-15s-15,6.716-15,15v46c0,8.284,6.716,15,15,15s15-6.716,15-15v16c0,8.284,6.716,15,15,15   s15-6.716,15-15v-25h70v25c0,8.284,6.716,15,15,15s15-6.716,15-15v-16c0,8.284,6.716,15,15,15s15-6.716,15-15v-46   C349,272.716,342.284,266,334,266z"/>
</g>















</svg>
