<?xml version="1.0"?>
<svg xmlns="http://www.w3.org/2000/svg" id="Outline" viewBox="0 0 512 512" width="512" height="512"><path d="M483.918,435.182l-16.895-47.307a95.992,95.992,0,0,0-54.911-153.748L371.352,120H384a72.081,72.081,0,0,0,72-72V40a24,24,0,0,0-48,0v8a24.027,24.027,0,0,1-24,24H328a24,24,0,0,0-5.9,47.264l15.179,42.5L210.321,276.627l-67.847-4.242-5.98-.37c-.164-.01-.329-.015-.494-.015-.612,0-1.218.027-1.826.046L99.721,184H120a24.027,24.027,0,0,0,24-24v-2.123a24.118,24.118,0,0,0-20.606-23.759l-80-11.429A24,24,0,0,0,16,146.448V160a24.027,24.027,0,0,0,24,24H50.54L92.911,292.276a55.9,55.9,0,0,0,10.417,81.162l-64.783,58.61A24.028,24.028,0,0,0,16,456v16a24.027,24.027,0,0,0,24,24H56a24.027,24.027,0,0,0,24-24H432a24.027,24.027,0,0,0,24,24h16a24.027,24.027,0,0,0,24-24V456A24.008,24.008,0,0,0,483.918,435.182ZM452.7,275.889a80,80,0,0,1,7.734,93.539L418.7,252.577A80.207,80.207,0,0,1,452.7,275.889ZM465.791,432H456a24,24,0,0,0-5.026.534L339.352,120h15.01ZM423,401.765a80.03,80.03,0,0,1-97.678-29.582L392.264,368A39.914,39.914,0,0,0,409.5,363.97ZM363.864,236.2a96.441,96.441,0,0,0-56.508,46.491l-32.71-2.045,79.122-72.712Zm5.386,15.081,12.887,36.085-56.826-3.553A80.365,80.365,0,0,1,369.25,251.283ZM328,88h56a40.045,40.045,0,0,0,40-40V40a8,8,0,0,1,16,0v8a56.063,56.063,0,0,1-56,56H328a8,8,0,0,1,0-16Zm15.1,90.072,4.823,13.5-95.419,87.689-19.877-1.243ZM32,160V146.448a8,8,0,0,1,7.962-8,8.409,8.409,0,0,1,1.169.083l80,11.429a8.04,8.04,0,0,1,6.869,7.92V160a8.009,8.009,0,0,1-8,8H40A8.009,8.009,0,0,1,32,160Zm50.54,24,35.587,90.942a55.729,55.729,0,0,0-12.461,6.023L67.721,184ZM96,328a40.045,40.045,0,0,1,39.764-40l252.23,15.765,16.06,44.969A23.929,23.929,0,0,1,392,352c-.166,0-.333,0-.5.016L165.765,366.127l-11.954-22.06a23.951,23.951,0,1,0-14.059,7.638l8.411,15.523-6.677.417-5.722.355A40.045,40.045,0,0,1,96,328Zm40,8a8,8,0,1,1,8-8A8.009,8.009,0,0,1,136,336Zm0,48c.165,0,.33,0,.494-.015l2.2-.137L75.45,441.964a24.054,24.054,0,0,0-13.762-9.277l56.9-51.474A55.763,55.763,0,0,0,136,384ZM64,472a8.009,8.009,0,0,1-8,8H40a8.009,8.009,0,0,1-8-8V456a8.009,8.009,0,0,1,8-8H56a8.009,8.009,0,0,1,8,8Zm19.823-16,75.064-68.981,8.2,15.128-7.03,3.811a8,8,0,1,0,7.624,14.066l28.133-15.249a8,8,0,1,0-7.624-14.066l-7.037,3.814-6.986-12.893,133.206-8.325a96.021,96.021,0,0,0,121.011,43.544l8.712,24.394A23.873,23.873,0,0,0,432,456ZM480,472a8.009,8.009,0,0,1-8,8H456a8.009,8.009,0,0,1-8-8V456a8.009,8.009,0,0,1,8-8h16a8.009,8.009,0,0,1,8,8Z"/></svg>
