<svg id="Capa_1" enable-background="new 0 0 512 512" height="512" viewBox="0 0 512 512" width="512" xmlns="http://www.w3.org/2000/svg"><g><path d="m487.494 421.662h-16.252c12.803-14.724 20.676-33.739 20.946-54.488.589-45.362-34.154-83.213-79.248-86.541l-26.905-4.653v-196.06h5.572c23.942 0 46.517-12.724 58.913-33.207l14.288-23.606c4.29-7.087 2.022-16.31-5.064-20.6-7.088-4.29-16.311-2.022-20.6 5.065l-14.289 23.606c-6.996 11.56-19.736 18.741-33.248 18.741h-59.571c-12.764 0-24.523 6.943-30.688 18.118l-15.16 27.473c-4.002 7.253-1.366 16.378 5.888 20.38 7.249 4.002 16.377 1.368 20.38-5.887l15.158-27.474c.889-1.61 2.582-2.61 4.421-2.61h23.999v190.871c-224.119-38.763-210.335-36.542-216.849-37.127l-18.81-71.937h27.157c8.284 0 15-6.716 15-15s-6.716-15-15-15h-84.721c-8.284 0-15 6.716-15 15s6.716 15 15 15h26.556l19.211 73.472c-50.479 9.696-89.168 53.799-88.77 107.39.23 31.09 13.657 59.182 34.972 79.072h-30.274c-13.513.002-24.506 10.995-24.506 24.508v40.988c0 13.513 10.993 24.506 24.506 24.506h462.988c13.513 0 24.506-10.994 24.506-24.506v-40.988c0-13.513-10.993-24.506-24.506-24.506zm-437.686-79.295c-.365-49.201 44.757-86.474 93.482-77.927.012.002.023.004.036.006 280.833 48.572 265.603 45.987 266.853 46.066 29.551 1.895 52.396 26.612 52.011 56.271-.389 29.963-25.31 54.381-55.75 54.877h-276.455c-43.975-.497-79.855-35.866-80.177-79.293zm432.192 139.295h-452v-30h452z"/><path d="m138.96 387.731c19.55 0 36.24-12.54 42.42-30h68.62c8.28 0 15-6.71 15-15 0-8.28-6.72-15-15-15h-68.62c-6.18-17.46-22.87-30-42.42-30-24.81 0-45 20.19-45 45 0 24.82 20.19 45 45 45zm0-60c16.209 0 20.856 22.36 5.9 28.79-9.836 4.239-20.9-3.033-20.9-13.79 0-8.27 6.73-15 15-15z"/></g></svg>